<svg xmlns="http://www.w3.org/2000/svg" width="144.083" height="144"><path d="M72.041 11.166c-33.543 0-60.833 27.29-60.833 60.834 0 33.545 27.29 60.834 60.833 60.834 33.544 0 60.835-27.289 60.835-60.834-.001-33.544-27.292-60.834-60.835-60.834zm0 115.668c-30.235 0-54.833-24.598-54.833-54.834 0-30.235 24.598-54.834 54.833-54.834S126.876 41.765 126.876 72c-.001 30.236-24.6 54.834-54.835 54.834z"/><path d="M99.208 52.18c1.398-.722 4.746-2.867 6.324-7.471 0 0-3.803 2.75-8.979 3.074l-.094.052a14.453 14.453 0 0 0-10.688-4.703c-8.008 0-14.499 6.492-14.499 14.5 0 1.215.151 2.395.434 3.523l-.07-.105s-15.53.89-30.171-15.127c0 0-6.473 11.001 4.61 19.414-2.427.404-6.713-1.78-6.713-1.78s.242 11.566 11.728 14.398c-1.86.486-5.339.646-6.471.162 0 0 1.698 8.816 13.428 10.354-2.993 1.699-8.574 6.875-21.194 5.904 0 0 9.062 7.441 25.887 6.391s29.04-12.377 33.974-24.348c4.934-11.971 3.561-18.787 3.561-18.787s4.123-2.164 6.957-7.34c-1.309.392-6.164 1.578-7.971 2.017a4.897 4.897 0 0 1-.053-.128z"/></svg>